<?xml version="1.0" standalone="no"?>
<!DOCTYPE svg PUBLIC "-//W3C//DTD SVG 1.1//EN" "http://www.w3.org/Graphics/SVG/1.1/DTD/svg11.dtd" >
<svg xmlns="http://www.w3.org/2000/svg">
<metadata></metadata>
<defs>
<font id="babydoll_czregular" horiz-adv-x="1155" >
<font-face units-per-em="2048" ascent="1638" descent="-410" />
<missing-glyph horiz-adv-x="579" />
<glyph horiz-adv-x="0" />
<glyph unicode="&#xd;" horiz-adv-x="579" />
<glyph unicode=" "  horiz-adv-x="579" />
<glyph unicode="&#x09;" horiz-adv-x="579" />
<glyph unicode="&#xa0;" horiz-adv-x="579" />
<glyph unicode="!" horiz-adv-x="685" d="M214 1321v104q39 65 92 65q166 0 193 -842v-26q-12 -130 -116 -130h-39q-130 0 -130 829zM241 194v26q0 21 51 52h104q103 0 103 -117v-13q0 -142 -116 -142h-14q-106 0 -128 194z" />
<glyph unicode="&#x22;" horiz-adv-x="766" d="M72 1711v87q0 27 69 69h87q105 -77 105 -227v-103q0 -106 -122 -192h-17q-122 102 -122 366zM472 1537v174q0 135 87 173h69q105 -60 105 -278v-69q-24 -175 -156 -175q-105 71 -105 175z" />
<glyph unicode="#" horiz-adv-x="1523" d="M207 478v48q6 41 206 96v24l-13 61h-60q-26 0 -48 -12q-54 0 -85 72q0 37 133 109q-85 263 -85 302q24 54 49 60q69 0 193 -313q189 34 229 71q-48 89 -84 255q18 47 36 47h13q99 0 204 -253q227 36 242 36h24q60 -31 60 -96q0 -88 -241 -121q12 -49 48 -49 q224 49 266 49h24q16 0 60 -60v-73q0 -65 -302 -109q49 -108 49 -241q0 -48 -49 -72q-101 107 -192 266q-150 -37 -242 -73q49 -116 60 -301q-24 -73 -48 -73h-12q-65 0 -169 326h-12q-91 -24 -169 -24q-65 0 -85 48zM570 756q0 -61 24 -61l217 61v35q0 24 -24 24 q-133 -48 -217 -59z" />
<glyph unicode="$" d="M207 1039q0 288 317 418q16 101 52 101h25q15 0 64 -89q190 -47 190 -101v-76q0 -25 -26 -25h-25q-16 0 -139 25h-13q-26 -216 -26 -431q356 -107 356 -369q-42 -316 -317 -316v-114q-33 -64 -102 -64q-66 0 -101 215q-191 93 -191 216l25 13q88 -26 152 -26h14v39 q0 82 -14 253q14 0 14 12q-255 140 -255 319zM385 1051q0 -48 77 -101h12v12q0 112 25 279q-49 0 -114 -190zM626 594q0 -66 12 -216h52q101 0 101 140q0 80 -165 140v-64z" />
<glyph unicode="%" horiz-adv-x="1835" d="M73 1203q96 175 147 205q131 43 220 43h88q208 0 248 -322q-101 -308 -278 -308h-58q-305 0 -367 382zM249 1143q0 -135 220 -160h29q103 71 103 160v15q0 90 -118 132q-234 -29 -234 -132v-15zM366 162v58q0 51 455 660q178 327 483 616h59q21 0 44 -45v-28 q0 -39 -337 -528q-484 -778 -616 -778h-44q-21 0 -44 45zM1041 572q75 278 263 278h30q440 -83 440 -410q0 -214 -308 -264q-425 59 -425 396zM1216 528q85 -161 220 -161h45q102 0 102 88q-54 205 -307 205q-60 -79 -60 -132z" />
<glyph unicode="&#x26;" horiz-adv-x="1426" d="M166 341q0 236 430 543q-228 267 -228 442q77 252 367 252q277 0 329 -379v-12q0 -156 -216 -329q108 -176 127 -176q86 114 176 114h64q20 0 50 -52v-37q-189 -147 -189 -228q100 -197 114 -240q0 -76 -101 -89q-38 0 -139 152q-230 -214 -418 -214q-319 0 -366 253z M331 353q0 -59 189 -76q173 0 328 215v13q-78 161 -151 239h-13q-264 -163 -353 -391zM545 1301q0 -66 190 -303h13q151 96 151 201q0 164 -164 215q-107 0 -190 -88v-25z" />
<glyph unicode="'" horiz-adv-x="445" d="M104 1711v87q0 27 69 69h87q105 -77 105 -227v-103q0 -106 -122 -192h-17q-122 102 -122 366z" />
<glyph unicode="(" horiz-adv-x="864" d="M149 884q0 388 487 669q63 24 97 24q62 -16 62 -37v-36q-463 -358 -463 -584v-86q0 -408 426 -632l12 -24v-62q0 -16 -61 -60h-12q-299 101 -462 401q-86 195 -86 427z" />
<glyph unicode=")" horiz-adv-x="864" d="M99 42q0 91 225 237q211 171 211 516q0 378 -422 673l-14 66v14q0 21 53 53h13q239 0 462 -344q132 -247 132 -423v-78q0 -546 -488 -780h-27q-145 21 -145 66z" />
<glyph unicode="*" horiz-adv-x="1167" d="M142 1379q20 52 39 52h13q39 0 205 -103l-13 90v13q0 18 39 38h13q43 0 90 -180h12q0 23 155 206h38q19 0 39 -52q0 -45 -103 -244h13q53 0 257 39q64 -18 64 -90q0 -70 -270 -76q180 -175 180 -232v-39q-20 -51 -90 -51h-25l-155 141v-12q26 -90 26 -155v-25 q0 -18 -39 -39h-38q-54 0 -103 295q-121 -141 -166 -141q-54 18 -78 65v12q0 46 78 142q-168 0 -168 51q0 56 193 77q-206 175 -206 218z" />
<glyph unicode="+" d="M66 888v31q0 65 316 74v120l-17 90q20 105 86 105q102 0 159 -300h52q142 0 333 15q106 -31 106 -120q-24 -62 -88 -89h-368l53 -389q-35 -68 -71 -75h-105q-123 0 -123 464h-157q-136 0 -176 74z" />
<glyph unicode="," horiz-adv-x="634" d="M116 145v53q36 178 178 178q250 -93 250 -338v-53q-65 -231 -215 -231q-25 0 -53 53v17q0 45 72 197q-232 0 -232 124z" />
<glyph unicode="-" horiz-adv-x="916" d="M96 717v60q0 100 396 100h37q276 0 276 -100v-39q0 -113 -61 -141q-648 45 -648 120z" />
<glyph unicode="." horiz-adv-x="634" d="M140 335q0 103 144 128h16q159 0 159 -224q-43 -127 -159 -127q-140 0 -160 223z" />
<glyph unicode="/" horiz-adv-x="979" d="M80 239q0 82 541 1037q107 222 176 278h43q22 0 45 -59v-21q-31 -304 -659 -1354h-73q-53 37 -73 119z" />
<glyph unicode="0" horiz-adv-x="1133" d="M88 610q0 280 278 417q57 27 83 27l28 -13q104 28 125 28q403 -82 403 -390q14 0 14 -96v-56q0 -431 -500 -431q-375 0 -418 444zM254 638q40 -361 265 -361h13q306 0 306 306q0 305 -333 305h-112q-84 -38 -139 -250z" />
<glyph unicode="1" horiz-adv-x="828" d="M198 893v46q90 114 280 264h77q56 0 78 -217q-31 -385 -31 -497q15 -286 15 -418l-62 -47h-61q-79 0 -79 310v279q0 109 16 341h-16q-131 -108 -155 -108q-62 23 -62 47z" />
<glyph unicode="2" d="M184 895v58q112 217 303 217q433 -54 433 -332q0 -296 -375 -535l-43 -57v-15h360q115 -6 115 -115q0 -43 -100 -101l-405 28l-173 -28q-87 29 -87 115q24 160 448 520q72 130 72 202q-30 144 -289 144h-14q-142 -144 -202 -144q-21 0 -43 43z" />
<glyph unicode="3" horiz-adv-x="1114" d="M184 869v13q62 257 298 257q250 0 299 -228v-14q0 -134 -56 -199q155 0 213 -242q-90 -399 -213 -399q-64 -57 -129 -57h-57q-194 0 -270 114v99q5 29 29 29q158 -57 270 -57q131 0 213 271q-23 114 -185 114q-99 -57 -142 -57h-29q-21 0 -57 57v56q0 27 228 142 q44 78 44 129q0 81 -158 99h-28q-62 0 -213 -156h-29q-28 0 -28 29z" />
<glyph unicode="4" horiz-adv-x="947" d="M114 586q73 585 161 585q58 -22 58 -44q0 -218 -43 -453h291v263q0 79 60 103q131 0 131 -951q-24 -73 -88 -73q-103 0 -103 409v45q0 28 -28 28h-278q-115 0 -161 88z" />
<glyph unicode="5" horiz-adv-x="1098" d="M144 1027q48 64 288 64h322q22 0 47 -48v-16q0 -97 -337 -97h-144l16 -159v-81l16 -32q63 32 177 32h80q337 -30 337 -241v-96q0 -302 -257 -353q-27 -16 -80 -16h-80q-161 0 -353 161v32q0 36 80 48l128 -32q386 0 386 176v32q0 101 -161 112h-32q-89 0 -305 -48 q-102 0 -128 562z" />
<glyph unicode="6" d="M50 513v65q0 389 408 555h130q24 0 49 -49v-49l-244 -131q-164 -98 -164 -391v-49h17q85 310 310 310l114 16q375 -43 375 -310v-98q0 -238 -391 -326h-131q-473 57 -473 457zM393 268q113 -33 195 -33q278 33 278 212q0 125 -164 147h-65q-228 0 -228 -310 q-16 0 -16 -16z" />
<glyph unicode="7" d="M122 1077q0 41 78 78q738 0 738 -93v-61q-262 -943 -354 -1017h-62q-31 0 -31 31v31q0 289 217 908h-16q-570 0 -570 123z" />
<glyph unicode="8" horiz-adv-x="1043" d="M128 398q0 98 154 238q-85 58 -85 169v56q0 236 365 294q192 0 266 -281v-13q-28 -141 -84 -210q141 -133 141 -253v-70q0 -257 -393 -336h-42q-301 0 -322 406zM282 357q18 -211 196 -211q252 52 252 196v15q0 172 -252 196h-14q-182 -54 -182 -196zM352 832 q0 -82 126 -112q168 29 168 141v42q-24 56 -168 112q-126 -61 -126 -183z" />
<glyph unicode="9" d="M130 687v118q0 297 424 366q351 0 351 -585q-36 -448 -351 -556q-26 -15 -146 -30l-15 30v14q308 358 308 542q-120 -117 -235 -117h-58q-278 43 -278 218zM320 686q0 -38 149 -65q134 0 213 312l-49 33h-66q-247 -21 -247 -247v-33z" />
<glyph unicode=":" horiz-adv-x="634" d="M155 956q0 103 144 128h16q159 0 159 -223q-43 -128 -159 -128q-141 0 -160 223zM156 271q0 103 144 128h16q159 0 159 -223q-43 -128 -159 -128q-140 0 -160 223z" />
<glyph unicode=";" horiz-adv-x="634" d="M100 89v53q36 178 178 178q250 -93 250 -338v-53q-65 -231 -214 -231q-26 0 -54 53v18q0 44 72 196q-232 0 -232 124zM148 940q0 103 144 128h16q159 0 159 -223q-43 -128 -159 -128q-140 0 -160 223z" />
<glyph unicode="&#x3c;" d="M168 683v44q0 103 566 727q47 28 73 28l43 -58q0 -100 -480 -697q259 -142 669 -480v-86q0 -20 -72 -73h-30q-48 0 -610 407q-159 81 -159 188z" />
<glyph unicode="=" d="M144 465q46 112 181 112h14q118 0 614 -29q98 -20 98 -97q0 -59 -83 -153q-811 34 -811 111q-13 24 -13 56zM171 828v56q0 64 210 84q362 -14 489 -14q139 -32 139 -70v-70q-35 -70 -112 -70h-558q-118 0 -168 84z" />
<glyph unicode="&#x3e;" d="M136 247q13 97 605 510v48q-408 329 -478 573v48q0 23 48 48h48q626 -637 637 -637l16 -32v-64q0 -91 -319 -302q-346 -303 -446 -303h-47q-64 26 -64 111z" />
<glyph unicode="?" horiz-adv-x="1083" d="M9 1176q0 336 470 393h15q340 0 453 -266q16 -23 16 -70v-57q0 -305 -288 -475q-97 -237 -121 -237q0 -29 -31 -29h-44q-106 0 -106 99v28q0 193 333 461q45 130 45 196q-58 154 -228 154h-60q-196 0 -333 -280q-16 0 -46 -13q-75 19 -75 96zM342 141q0 84 121 141h16 q121 0 150 -154v-14q-53 -98 -150 -98q-137 36 -137 125z" />
<glyph unicode="@" horiz-adv-x="2142" d="M230 847q0 336 325 651q205 120 480 120q512 0 805 -583q17 -92 17 -154v-34q-39 -410 -325 -410q-94 0 -223 85q-89 -240 -325 -240h-69q-394 62 -394 377q0 496 531 496q262 0 325 -411q71 -83 120 -102h52q63 0 103 205q0 325 -514 514q-52 0 -120 17 q-464 0 -548 -565q0 -468 411 -600q211 -51 291 -51h34q322 51 343 51h17q27 0 69 -68v-103q-38 -107 -480 -137q-340 28 -668 240q-257 213 -257 702zM762 676q0 -154 205 -154q188 31 188 325q0 34 -120 68q-247 0 -273 -239z" />
<glyph unicode="A" horiz-adv-x="1549" d="M128 198v43q386 1193 506 1193q239 0 740 -1068v-42q-44 -83 -106 -83q-149 74 -149 188h-717l-168 -293h-42q-31 0 -64 62zM465 638h528v21q-92 203 -316 481z" />
<glyph unicode="B" horiz-adv-x="1442" d="M165 996q0 519 239 519q0 40 118 46h48q570 -61 570 -362v-67q0 -96 -71 -248q261 -135 261 -361q0 -428 -784 -428q-142 0 -182 6l-8 16q-143 0 -143 361q-48 274 -48 518zM450 659l24 -113v-181l119 -22h72q427 13 427 180q-52 158 -189 158q-181 -17 -274 -17 q-30 0 -51 2q-79 15 -104 15q0 -22 -24 -22zM450 974l27 -45q13 0 144 -16l245 31q73 63 73 148q0 47 -22 100q-111 143 -309 143h-27l-131 -23v-338z" />
<glyph unicode="C" horiz-adv-x="1250" d="M152 730q0 324 326 571q119 53 163 53h90q105 0 217 -124v-55q0 -35 -54 -35q-33 0 -200 35q-343 -119 -343 -464q53 -465 326 -465q67 0 290 107q74 -24 108 -89v-53q-148 -179 -398 -179q-449 0 -525 698z" />
<glyph unicode="D" horiz-adv-x="1282" d="M83 1428q82 68 156 68h202q602 0 738 -537v-112q0 -679 -872 -782q-179 0 -179 738q-28 0 -45 625zM329 1272l89 -827q515 79 515 469q0 306 -582 381q0 -23 -22 -23z" />
<glyph unicode="E" horiz-adv-x="1234" d="M128 1204h25l-25 37v57q0 152 380 152h76q507 0 507 -152q-38 -76 -75 -76q-203 0 -534 19q-49 -19 -75 -19v-341l25 -37l178 18h253q40 0 101 -75v-77q0 -29 -101 -75h-406q-50 -6 -50 -39q25 -264 50 -284q401 38 457 38l76 -75v-77q-6 -107 -397 -107q-134 0 -314 13 q-126 0 -126 171v417q0 161 -25 512z" />
<glyph unicode="F" horiz-adv-x="1035" d="M96 391l21 131v66q0 90 -21 240q0 22 21 22l-21 109v306q43 196 109 196h196q110 0 477 3l12 -225l-575 -18v-174l21 -219h503q87 -36 87 -153q0 -41 -110 -131q-382 44 -458 44l-19 -586q-101 -26 -134 -26h-21q-32 0 -67 65v241q0 73 -21 109z" />
<glyph unicode="G" horiz-adv-x="1544" d="M229 806v71q81 598 582 598h17q28 0 70 -71v-17q0 -36 -334 -193q-141 -228 -141 -353q0 -512 405 -512q353 39 353 319v17h-247q-28 0 -71 70v53q0 84 423 123q73 -24 106 -88v-211q0 -417 -564 -493h-35q-388 0 -547 440q-17 150 -17 247z" />
<glyph unicode="H" horiz-adv-x="1608" d="M202 1334q26 72 52 72h36q86 0 138 -488h17q317 36 711 54q0 -18 18 -18v290q10 108 52 108h52q156 0 156 -1102l-69 -54h-87q-104 0 -104 542q-18 0 -18 18q-462 -18 -693 -55l51 -470q-33 -82 -69 -90h-52q-142 0 -191 1193z" />
<glyph unicode="I" horiz-adv-x="653" d="M184 806v422q0 118 118 118q135 -116 135 -506q34 -162 50 -675q-23 -69 -85 -101h-84q-134 0 -134 742z" />
<glyph unicode="J" horiz-adv-x="1051" d="M8 341q22 109 152 109q90 -109 185 -109h101q168 0 168 218q0 79 18 459q-18 201 -18 303q26 48 52 48h50q169 -129 169 -423v-303q0 -332 -152 -410q-119 -64 -320 -73q-405 36 -405 181z" />
<glyph unicode="K" horiz-adv-x="1186" d="M112 1352l72 41q126 0 198 -442q464 386 558 386q38 -5 72 -68q0 -91 -305 -360q450 -425 450 -567v-28q0 -20 -55 -42h-17q-157 0 -505 512q-23 0 -162 -124q36 -424 36 -471q0 -72 -90 -110h-90q-109 0 -109 498q-35 0 -35 27q0 50 18 124z" />
<glyph unicode="L" horiz-adv-x="1282" d="M215 188v347q0 792 101 792h41q100 -25 100 -214v-133q0 -254 21 -693h19q592 -17 685 -17l61 -66v-82q0 -26 -81 -66h-484q-463 0 -463 132z" />
<glyph unicode="M" horiz-adv-x="1795" d="M220 625v418q0 139 123 139q116 0 490 -398q354 459 472 459h36q151 0 385 -1017v-60q0 -30 -71 -79h-105q-90 59 -279 816v20q-357 -418 -438 -418q-53 0 -437 398v-537q0 -319 -53 -319h-35q-88 0 -88 578z" />
<glyph unicode="N" horiz-adv-x="1771" d="M245 168q0 1043 95 1043h37q118 0 721 -647l189 -166h19v20q89 689 190 689h76q75 -43 75 -105q-114 -365 -171 -896q-61 -42 -113 -42q-102 0 -872 792q-57 -772 -132 -772h-57q-28 0 -57 84z" />
<glyph unicode="O" horiz-adv-x="1426" d="M136 682q0 376 292 520q299 80 324 80q306 0 569 -389q65 -214 65 -276q0 -585 -601 -585q-402 0 -584 374q-65 133 -65 276zM447 649q64 -361 373 -361q294 0 294 307q0 287 -387 373q-266 -71 -266 -266q-14 -24 -14 -53z" />
<glyph unicode="P" horiz-adv-x="1276" d="M106 1387q127 117 383 117q498 0 683 -416v-68q0 -490 -633 -582h-100q-33 -6 -33 -33l17 -35q-40 -282 -117 -282h-67q-62 0 -116 449q0 38 16 67zM351 1236q30 -152 59 -543h88q395 56 395 278q0 200 -322 265l-175 13q-29 -13 -45 -13z" />
<glyph unicode="Q" horiz-adv-x="1501" d="M104 823q0 390 303 538q309 85 336 85q316 0 589 -404q67 -221 67 -286q0 -234 -135 -421v-16q118 -129 118 -202q-23 -69 -85 -101h-50q-84 0 -202 169q-149 -35 -269 -35q-416 0 -605 387q-67 139 -67 286zM380 813q70 -398 413 -398q27 0 118 30q-74 142 -74 191v45 q0 21 44 44h59l149 -148q28 102 28 178q0 318 -427 412q-296 -78 -296 -295q-14 -25 -14 -59z" />
<glyph unicode="R" horiz-adv-x="1250" d="M176 1256q115 106 348 106q454 0 623 -379v-61q0 -290 -258 -440l183 -228v-60q0 -80 -46 -91q-112 0 -350 303l-30 -15h-167q-30 -5 -30 -31l15 -31q-36 -257 -106 -257h-60q-57 0 -108 410q0 34 16 61zM373 1165q31 -156 60 -562h91q411 58 411 288q0 207 -334 274 l-183 15q-29 -15 -45 -15z" />
<glyph unicode="S" horiz-adv-x="876" d="M162 1048v30q106 316 316 316h60q81 0 105 -60v-61q0 -21 -180 -105q-75 -78 -75 -150q0 -132 240 -271q164 -171 181 -316q0 -246 -361 -391h-106q-135 19 -135 136q0 119 241 119q120 63 120 151q0 72 -301 286q-105 148 -105 316z" />
<glyph unicode="T" horiz-adv-x="1418" d="M48 1288v69q28 68 123 68h352q94 0 160 17q92 -17 175 -17h318q194 0 194 -154q-61 -121 -141 -121q-180 17 -282 17h-124v-154q0 -177 18 -274q-18 -109 -18 -241q0 -42 18 -259q-61 -119 -141 -119q-113 0 -141 155v343q0 180 18 549h-159q-370 45 -370 121z" />
<glyph unicode="U" horiz-adv-x="1489" d="M142 809v529q0 25 69 64q223 0 223 -690q87 -352 379 -352q276 65 276 386l-70 592q24 80 121 80h51q155 -121 155 -721v-32q0 -410 -447 -545l-86 -16q-571 0 -671 705z" />
<glyph unicode="V" horiz-adv-x="1680" d="M197 1237l59 38h39q147 -102 607 -885v-20h19q452 905 587 905h20q30 0 78 -77v-77q-562 -969 -645 -1039h-98q-235 288 -666 1155z" />
<glyph unicode="W" horiz-adv-x="2094" d="M104 1097q0 -105 53 -126q326 -939 416 -939q20 0 55 20q77 6 344 627q308 -502 435 -584h90l73 62q145 429 398 960q0 113 -73 146h-90q-178 -239 -380 -834q-11 0 -91 103q-260 502 -343 502q-123 0 -381 -605h-37q-92 442 -361 751h-73q-30 0 -35 -42v-41z" />
<glyph unicode="X" horiz-adv-x="1466" d="M64 1082q56 97 128 97q86 0 477 -319q367 429 478 429h32q32 0 64 -83q0 -75 -366 -527q493 -352 493 -417v-27q-20 -126 -143 -126h-16q-88 0 -510 348h-32q-99 -156 -350 -361h-48q-127 0 -127 110v15q0 47 334 403q-414 351 -414 458z" />
<glyph unicode="Y" horiz-adv-x="1378" d="M71 1371v18q0 23 43 50h30q98 0 492 -387q439 437 523 437q93 0 116 -152q0 -70 -493 -487q0 -26 -30 -66v-550q-43 -85 -101 -85q-102 0 -102 285v316q0 110 -463 537z" />
<glyph unicode="Z" horiz-adv-x="1282" d="M64 215v68q3 106 675 709l64 84v16q-236 17 -347 17h-125q-220 0 -220 135q0 97 173 118h236q643 0 643 -134v-102q-193 -288 -722 -776h439q252 0 252 -168q-50 -101 -173 -101h-94q-83 0 -141 17q-83 -17 -157 -17h-267l-95 -17q-141 34 -141 151z" />
<glyph unicode="[" horiz-adv-x="1098" d="M152 41q0 258 16 1190q-16 110 -16 177q0 95 787 129q65 -24 65 -48v-49q0 -93 -627 -161q0 -154 -17 -1109h65q202 0 498 16q81 -23 81 -113v-16q0 -113 -97 -113q-104 0 -273 16q-181 -16 -419 -16q-63 64 -63 97z" />
<glyph unicode="\" horiz-adv-x="860" d="M48 1512q19 79 69 79q145 -107 383 -578q313 -809 313 -900q0 -97 -93 -113h-11q-117 0 -360 788q-301 630 -301 724z" />
<glyph unicode="]" horiz-adv-x="979" d="M64 74v58q0 134 338 134q0 14 177 14h74v781q0 77 -15 250q-545 50 -545 89l-14 74v29q41 74 117 74q693 0 693 -162v-45q0 -44 -15 -44l15 -177v-987q0 -118 -118 -118h-147q-157 0 -471 -44q-62 21 -89 74z" />
<glyph unicode="^" d="M93 935v12q0 58 313 462q0 33 100 50q119 0 487 -449v-63q0 -17 -63 -62h-12q-73 0 -350 350q-21 0 -62 37q-259 -330 -350 -387q-57 24 -63 50z" />
<glyph unicode="_" horiz-adv-x="1354" d="M104 157v25q0 98 54 98h311q289 0 689 62q69 -34 69 -74v-37q-27 -184 -84 -184h-102q-236 0 -331 24q-312 -37 -482 -37q-100 0 -124 123z" />
<glyph unicode="`" horiz-adv-x="1167" d="M239 1575v61q29 41 125 41q126 0 637 -356q18 -18 18 -41q-35 -101 -177 -101q-161 0 -603 396z" />
<glyph unicode="a" horiz-adv-x="1410" d="M104 646q0 461 619 536q536 0 536 -783v-186q0 -247 -83 -247h-20q-57 0 -83 206v62h-21q-172 -166 -309 -166h-83q-556 0 -556 578zM343 679q0 -367 328 -367v-18q329 130 329 347q0 278 -213 309h-96q-348 -64 -348 -271z" />
<glyph unicode="b" horiz-adv-x="1386" d="M96 202q0 1213 202 1213h45q32 0 67 -68v-157l-22 -112l157 22h113q434 0 561 -449v-157q0 -416 -607 -494h-44q-53 0 -449 135q0 67 -23 67zM351 320q141 -95 261 -95q366 59 366 337q0 259 -444 315q-183 0 -183 -557z" />
<glyph unicode="c" horiz-adv-x="1202" d="M176 652q110 442 395 442h243q30 0 109 -100v-20q0 -73 -374 -121q-109 -153 -109 -221q71 -344 285 -344q120 21 198 21h45q31 0 66 -60v-81q0 -61 -198 -101h-176q-388 0 -484 585z" />
<glyph unicode="d" horiz-adv-x="1314" d="M120 515v112q0 417 537 515h90l156 -23l-23 112v158q0 31 67 67h46q155 0 179 -1187q0 -156 -269 -156q-14 -67 -179 -67h-23q-447 0 -581 469zM377 564q0 -244 373 -284q140 59 200 119q0 456 -200 521q-373 -58 -373 -284v-72z" />
<glyph unicode="e" horiz-adv-x="1290" d="M120 506v140q76 421 350 421h46q467 -40 467 -304q-240 -396 -536 -396v-24q0 -53 116 -69q142 0 466 139h24q33 0 70 -70v-23q-65 -280 -513 -280h-71q-419 96 -419 466zM353 530q397 100 397 233q-185 70 -234 70q-163 -56 -163 -280v-23z" />
<glyph unicode="f" horiz-adv-x="1083" d="M158 -96v1099q92 146 228 146q582 0 582 -166v-41q0 -29 -104 -104q-370 41 -478 41v-21q21 -111 21 -187v-165q7 -42 42 -42h477q29 0 62 -62v-103q0 -30 -62 -63h-497v-373q0 -113 -104 -166h-63q-104 47 -104 207z" />
<glyph unicode="g" horiz-adv-x="1210" d="M80 586v59q0 267 465 474q101 20 115 20q304 0 407 -692v-276q-95 -633 -483 -633q-89 39 -97 79v99q0 37 251 178q116 127 116 375h-20q-135 -119 -289 -119q-465 94 -465 436zM304 576q0 -191 277 -218q171 0 214 239q0 59 -86 348q-405 -139 -405 -348v-21z" />
<glyph unicode="h" horiz-adv-x="1434" d="M120 1381q33 86 65 86h44q136 0 153 -480q254 197 437 197h43q345 0 436 -546q-21 -382 -21 -480l-88 -66h-108q-88 44 -88 131q43 426 43 502q-64 241 -174 241q-373 0 -437 -524v-284q0 -34 -88 -87h-65q-87 29 -87 196v262z" />
<glyph unicode="i" horiz-adv-x="589" d="M128 1310v86q24 64 143 64h24q96 -34 96 -150q0 -31 -72 -64h-119q-35 0 -72 64zM152 1019l71 35h48q192 0 192 -794v-37q0 -27 -96 -71q-129 0 -167 71q-48 599 -48 796z" />
<glyph unicode="j" horiz-adv-x="907" d="M40 -200q0 86 71 112h69q23 0 106 -143h17q193 0 211 287q0 296 -35 669l35 16h71q140 -54 140 -479v-254q0 -447 -439 -447q-246 65 -246 224v15zM422 1024v35q0 24 88 88h87q28 0 70 -71v-17q0 -123 -122 -123h-35q-24 0 -88 88z" />
<glyph unicode="k" horiz-adv-x="1186" d="M104 471q45 838 45 1047l69 36h23q91 0 112 -319v-338h23l546 266q91 -26 91 -53v-53q0 -38 -295 -231v-18q298 -379 341 -550v-17q0 -27 -68 -54h-69q-68 0 -363 551h-46q-160 -75 -160 -108q0 -54 23 -336q-16 -142 -181 -142q-91 59 -91 319z" />
<glyph unicode="l" horiz-adv-x="733" d="M136 1442l65 32h63q165 -113 301 -1227q-43 -95 -85 -95h-107q-138 0 -194 956q-22 0 -43 334z" />
<glyph unicode="m" horiz-adv-x="2189" d="M136 906l37 21h57q16 0 115 -123q154 186 399 186h77q84 0 208 -125q154 186 381 186q518 0 590 -763v-20q-96 -83 -114 -83q-124 0 -171 433q-121 206 -305 206q-212 0 -304 -268l19 -103v-124q0 -110 -76 -144h-77q-84 0 -94 494q-50 92 -134 104q-342 -85 -342 -371 v-248q0 -29 -57 -61h-76q-103 0 -133 803z" />
<glyph unicode="n" horiz-adv-x="1640" d="M152 824l52 25h52l78 -50q156 276 548 276q354 0 600 -578v-125q0 -301 -209 -301q-105 51 -105 125q0 54 27 276q0 261 -391 352h-27q-190 0 -234 -302q0 -426 -183 -426q-146 0 -208 728z" />
<glyph unicode="o" horiz-adv-x="1306" d="M136 564v125q0 301 410 389h41l63 -41q6 41 41 41h102q370 -102 370 -369v-186q0 -363 -472 -451q-555 128 -555 492zM361 627q0 -239 309 -309h41q202 0 226 309q0 246 -350 246q-226 -70 -226 -225v-21z" />
<glyph unicode="p" horiz-adv-x="1354" d="M104 958q72 66 521 197q602 -75 602 -615q0 -382 -622 -482h-81l-100 22l21 -220v-65q0 -32 -61 -66q-280 0 -280 1229zM384 760q61 -461 201 -461q361 66 361 286q0 306 -361 306q-94 -9 -201 -131z" />
<glyph unicode="q" horiz-adv-x="1426" d="M158 522v135q0 413 602 490h45q51 0 446 -134q0 -67 22 -67q-44 -1322 -200 -1360q-78 0 -112 245v134l23 111l-156 -21h-112q-446 0 -558 467zM426 589q0 -239 379 -289q156 0 156 513q-121 89 -223 89q-312 -55 -312 -313z" />
<glyph unicode="r" horiz-adv-x="1067" d="M144 1036q32 87 65 87h43q99 0 152 -411h21q132 324 432 324q87 -32 87 -64v-86q0 -54 -238 -130q-130 -144 -195 -649l-64 -43h-65q-119 0 -238 972z" />
<glyph unicode="s" horiz-adv-x="939" d="M144 101v79q9 46 241 140l19 78q-204 248 -204 359v77q0 273 445 313q167 -40 167 -124q0 -72 -297 -142l-37 -47v-14q0 -66 204 -375v-94q0 -232 -353 -327h-37q-148 41 -148 77z" />
<glyph unicode="t" horiz-adv-x="1202" d="M128 897v56q0 80 278 92v241q0 27 55 56h37q130 -74 130 -297h222q185 0 185 -148q0 -96 -130 -130q-189 38 -259 38v-18q74 -552 74 -649q0 -49 -129 -74q-134 0 -185 741h-38q-212 0 -240 92z" />
<glyph unicode="u" horiz-adv-x="1322" d="M173 543q65 586 191 586h42q20 0 84 -81l-84 -485q0 -283 359 -283q169 55 169 344l-64 403q42 81 128 81q189 -93 189 -505q-81 -565 -444 -565q-360 0 -548 343q-22 111 -22 162z" />
<glyph unicode="v" horiz-adv-x="1362" d="M103 1067v19q0 44 95 57q126 -42 400 -648q7 -38 39 -38q0 24 286 572q62 134 173 134q78 -26 114 -96v-38q0 -52 -382 -783q-88 -190 -210 -190q-154 0 -515 1011z" />
<glyph unicode="w" horiz-adv-x="1843" d="M176 956v59l58 39h59q55 0 234 -702q19 0 19 -38q71 75 273 642q63 39 117 39q97 0 234 -467q79 -116 97 -116q77 160 194 701q72 58 137 58q117 -46 117 -137q-186 -915 -429 -915h-39q-155 0 -332 370h-19q-99 -409 -311 -409h-20q-303 0 -389 876z" />
<glyph unicode="x" horiz-adv-x="1461" d="M144 999l56 44h18q35 0 518 -334q311 357 409 357h37q37 -7 37 -45v-22q0 -136 -279 -424q312 -228 335 -290v-89q0 -35 -75 -89h-18q-60 0 -446 290q-307 -357 -426 -357q-74 33 -74 67v89q238 312 298 312v22q-390 328 -390 469z" />
<glyph unicode="y" horiz-adv-x="1162" d="M64 1036q0 38 68 80h46l433 -505l46 -27q117 257 342 478h68q46 -8 46 -52v-54q0 -126 -639 -1169q0 -127 -137 -240h-91q-91 54 -91 160q114 292 319 638v27q-410 515 -410 664z" />
<glyph unicode="z" horiz-adv-x="1290" d="M112 1021v78q32 77 137 77h699q99 -49 99 -155q0 -137 -468 -739h331l116 19q117 0 137 -156q0 -26 -97 -97h-701q-102 0 -116 58v117q212 330 485 700v39h-564q-28 0 -58 59z" />
<glyph unicode="{" horiz-adv-x="860" d="M142 659v20q0 67 148 169q20 83 30 83q-93 224 -93 337q0 294 357 325q93 -14 93 -95q0 -63 -210 -83q-73 -77 -73 -127v-20q0 -74 84 -326q0 -130 -105 -241v-10q84 -86 84 -147q0 -48 -10 -232q0 -91 210 -147l20 -30v-43q0 -28 -93 -52q-294 50 -294 283 q10 156 10 211q0 28 -158 125z" />
<glyph unicode="|" horiz-adv-x="833" d="M235 1913l58 59h59q148 -208 273 -2257q-40 -176 -79 -176h-97q-124 0 -175 1758q-20 0 -39 616z" />
<glyph unicode="}" horiz-adv-x="828" d="M95 1538q0 79 78 79h12q326 -40 326 -315v-23q0 -52 -68 -293v-44q135 -98 135 -125v-10l-67 -147q67 -303 67 -349v-56q0 -215 -180 -247h-22q-101 20 -101 44v12q134 124 134 203v11q0 45 -78 393q22 84 22 113q-90 62 -90 169v45l68 315v22q0 113 -225 180z" />
<glyph unicode="~" horiz-adv-x="1314" d="M104 692v63q89 263 351 263q158 0 376 -213q163 0 163 163l50 37h63q19 0 50 -50v-50q0 -213 -301 -276h-50q-62 0 -276 188q-64 25 -88 25q-107 0 -263 -188h-38q-18 0 -37 38z" />
<glyph unicode="&#xa2;" horiz-adv-x="1298" d="M184 738q0 364 405 507q219 0 219 151q69 221 119 221h34q24 0 67 -85l-51 -354q68 -28 68 -119v-17q0 -33 -135 -50q-68 -265 -169 -541h17l253 51q85 -22 85 -51v-51q-129 -169 -389 -169h-33q-58 -287 -186 -287h-68q-68 28 -68 119q52 219 52 236v17 q-220 125 -220 422zM404 738q43 -202 84 -202h17q152 423 152 489q-253 -114 -253 -287z" />
<glyph unicode="&#xa3;" horiz-adv-x="1143" d="M48 75v13q0 75 215 469q27 64 27 89h-102q-68 0 -89 51v63q46 77 152 77h26v25q-51 210 -51 267q49 343 279 343h64q68 0 101 -64v-89q0 -19 -51 -50q-124 37 -139 37q-58 0 -89 -139v-38q30 -267 63 -267h178q88 0 88 -89v-38q0 -17 -62 -64h-77l-127 -12v-38 q0 -155 -127 -368q57 0 343 -51h114q42 0 191 89h12q64 -19 64 -89q-41 -153 -279 -153q-109 -13 -166 -13l-215 52q-82 0 -242 -64q-101 25 -101 51z" />
<glyph unicode="&#xa5;" horiz-adv-x="1438" d="M16 1262v26q0 21 60 53h46q242 -168 624 -405h16q84 177 364 457h61q83 0 122 -65v-40q0 -51 -289 -378v-14h212q108 0 108 -91q0 -105 -122 -105h-350v-39q4 -26 30 -26h365q91 -46 91 -117q0 -80 -122 -118q-155 13 -242 13h-92v-261q-7 -105 -122 -105 q-106 39 -106 117v236h-16q-257 8 -257 65v65q0 66 257 92v78l-106 -13q-289 11 -289 79v26q0 52 213 78v14q-456 238 -456 378z" />
<glyph unicode="&#xa8;" horiz-adv-x="1167" d="M238 1440q0 15 16 29l81 83q15 13 29 13q12 0 30 -16l79 -83q11 -16 11 -28q0 -15 -13 -31l-79 -86q-19 -19 -28 -19q-16 0 -29 14l-86 98q-11 13 -11 26zM654 1440q0 15 16 29l81 83q15 13 29 13q12 0 31 -15l78 -84q12 -16 12 -28q0 -15 -14 -30l-79 -87 q-19 -19 -28 -19q-16 0 -29 14l-86 99q-11 12 -11 25z" />
<glyph unicode="&#xa9;" horiz-adv-x="1908" d="M166 844v122q75 580 544 580q258 11 303 11q349 -73 593 -326q145 -169 145 -435q0 -438 -496 -617q-149 -37 -327 -37h-48q-497 0 -714 702zM360 929q0 -226 266 -508q93 -73 278 -97q519 0 642 351l24 121q0 423 -593 569q-78 0 -157 11q-349 0 -436 -290 q-24 -84 -24 -146v-11zM602 796v36q0 203 291 315h71q158 -23 158 -134v-23q-5 -26 -61 -50q-82 13 -133 13q-94 0 -145 -145q0 -78 194 -146h13q10 0 95 24h49q37 -11 37 -72v-12q0 -97 -134 -121h-97q-338 100 -338 315z" />
<glyph unicode="&#xab;" horiz-adv-x="1076" d="M198 546l390 345h16v-42l-234 -303l234 -303v-42h-16zM555 546l390 345h16v-42l-234 -303l234 -303v-42h-16z" />
<glyph unicode="&#xad;" horiz-adv-x="916" d="M96 717v60q0 100 396 100h37q276 0 276 -100v-39q0 -113 -61 -141q-648 45 -648 120z" />
<glyph unicode="&#xae;" horiz-adv-x="1908" d="M200 803v88q0 345 391 605q202 89 302 89q433 0 736 -447q79 -221 79 -459q0 -444 -370 -591q-165 -56 -268 -56h-100q-557 0 -748 614q-22 85 -22 157zM378 870q56 -458 124 -458q236 -224 501 -224q0 -11 23 -11q252 0 402 246q68 213 68 291q0 474 -470 692 q-103 22 -123 22q0 -16 -33 -34h-89q-196 0 -347 -301q-56 -119 -56 -223zM735 814v212q0 49 158 79h44q224 -20 224 -146v-33q0 -72 -68 -145q145 -54 145 -135v-11q0 -15 -56 -56h-11l-234 112l-44 11v-100q0 -79 -68 -79q-90 0 -90 291zM870 947q11 -78 11 -89 q134 35 134 79q-49 33 -101 33q-44 -9 -44 -23z" />
<glyph unicode="&#xaf;" horiz-adv-x="763" />
<glyph unicode="&#xb4;" horiz-adv-x="1167" d="M380 1280v53q343 347 469 347q111 -14 138 -103q0 -21 -12 -36q-400 -313 -498 -313q-76 15 -97 52z" />
<glyph unicode="&#xb8;" horiz-adv-x="1167" d="M410 -331q97 -59 174 -59q75 0 107.5 24.5t32.5 75.5q0 52 -56 73q-46 19 -116 19q-18 0 -39 -3l55 201h72l-43 -119q37 5 71 6q98 0 153 -46t55 -129q0 -87 -67 -138t-183 -51q-124 0 -216 37v109z" />
<glyph unicode="&#xbb;" horiz-adv-x="1076" d="M115 201v42l234 303l-234 303v42h16l390 -345l-390 -345h-16zM472 201v42l234 303l-234 303v42h16l390 -345l-390 -345h-16z" />
<glyph unicode="&#xc0;" horiz-adv-x="1755" />
<glyph unicode="&#xc1;" horiz-adv-x="1537" d="M128 198v43q386 1193 506 1193q239 0 740 -1068v-42q-44 -83 -106 -83q-149 74 -149 188h-717l-168 -293h-42q-31 0 -64 62zM465 638h528v21q-92 203 -316 481zM617 1656v53q343 347 469 347q111 -14 138 -103q0 -21 -12 -36q-400 -313 -498 -313q-76 15 -97 52z" />
<glyph unicode="&#xc2;" horiz-adv-x="1755" />
<glyph unicode="&#xc3;" horiz-adv-x="1755" />
<glyph unicode="&#xc4;" horiz-adv-x="1755" />
<glyph unicode="&#xc5;" horiz-adv-x="1755" />
<glyph unicode="&#xc6;" horiz-adv-x="2414" />
<glyph unicode="&#xc7;" horiz-adv-x="1594" />
<glyph unicode="&#xc8;" horiz-adv-x="1312" />
<glyph unicode="&#xc9;" horiz-adv-x="1312" d="M128 1204h25l-25 37v57q0 152 380 152h76q507 0 507 -152q-38 -76 -75 -76q-203 0 -534 19q-49 -19 -75 -19v-341l25 -37l178 18h253q40 0 101 -75v-77q0 -29 -101 -75h-406q-50 -6 -50 -39q25 -264 50 -284q401 38 457 38l76 -75v-77q-8 -143 -711 -94q-126 0 -126 171 v417q0 161 -25 512zM391 1645v53q343 347 469 347q111 -14 138 -103q0 -21 -12 -36q-400 -313 -498 -313q-76 15 -97 52z" />
<glyph unicode="&#xca;" horiz-adv-x="1312" />
<glyph unicode="&#xcb;" horiz-adv-x="1312" />
<glyph unicode="&#xcc;" horiz-adv-x="748" />
<glyph unicode="&#xcd;" horiz-adv-x="755" d="M184 806v422q0 118 118 118q135 -116 135 -506q34 -162 50 -675q-23 -69 -85 -101h-84q-134 0 -134 742zM345 1611v52q344 348 470 348q111 -15 138 -104q0 -20 -13 -35q-400 -314 -498 -314q-75 15 -97 53z" />
<glyph unicode="&#xce;" horiz-adv-x="748" />
<glyph unicode="&#xcf;" horiz-adv-x="748" />
<glyph unicode="&#xd0;" horiz-adv-x="1730" />
<glyph unicode="&#xd1;" horiz-adv-x="1702" d="M104 144q0 1043 94 1043h38q117 0 720 -647l190 -166h19v20q89 689 189 689h77q75 -43 75 -105q-114 -365 -171 -896q-62 -42 -113 -42q-103 0 -872 792q-57 -772 -132 -772h-57q-29 0 -57 84zM375 1273v63q89 263 351 263q159 0 376 -213q163 0 163 163l51 38h62 q20 0 50 -50v-50q0 -214 -301 -276h-50q-61 0 -276 188q-63 25 -87 25q-108 0 -264 -188h-37q-19 0 -38 37z" />
<glyph unicode="&#xd2;" horiz-adv-x="1839" />
<glyph unicode="&#xd3;" horiz-adv-x="1839" />
<glyph unicode="&#xd4;" horiz-adv-x="1839" />
<glyph unicode="&#xd5;" horiz-adv-x="1839" />
<glyph unicode="&#xd6;" horiz-adv-x="1839" />
<glyph unicode="&#xd8;" horiz-adv-x="1839" />
<glyph unicode="&#xd9;" horiz-adv-x="1711" />
<glyph unicode="&#xda;" horiz-adv-x="1711" d="M58 809v529q0 25 69 64q223 0 223 -690q87 -352 379 -352q276 65 276 386l-70 592q24 80 121 80h51q155 -121 155 -721v-32q0 -410 -447 -545l-86 -16q-571 0 -671 705zM515 1437v48q271 314 370 314q88 -12 109 -93q0 -19 -9 -33q-316 -283 -393 -283q-60 13 -77 47z " />
<glyph unicode="&#xdb;" horiz-adv-x="1711" />
<glyph unicode="&#xdc;" horiz-adv-x="1711" />
<glyph unicode="&#xdd;" horiz-adv-x="1405" d="M71 1371v18q0 23 43 50h30q98 0 492 -387q439 437 523 437q93 0 116 -152q0 -70 -493 -487q0 -26 -30 -66v-550q-43 -85 -101 -85q-102 0 -102 285v316q0 110 -463 537zM516 1602v52q344 348 470 348q111 -15 138 -104q0 -20 -12 -35q-401 -314 -499 -314q-75 15 -97 53z " />
<glyph unicode="&#xde;" horiz-adv-x="1276" />
<glyph unicode="&#xdf;" horiz-adv-x="1426" />
<glyph unicode="&#xe0;" horiz-adv-x="1051" />
<glyph unicode="&#xe1;" horiz-adv-x="1375" d="M104 646q0 461 619 536q536 0 536 -783v-186q0 -247 -83 -247h-20q-57 0 -83 206v62h-21q-172 -166 -309 -166h-83q-556 0 -556 578zM343 679q0 -367 328 -367v-18q329 130 329 347q0 278 -213 309h-96q-348 -64 -348 -271zM586 1294v44q288 291 393 291q93 -12 116 -86 q0 -18 -10 -30q-335 -263 -417 -263q-64 13 -82 44z" />
<glyph unicode="&#xe2;" horiz-adv-x="1393" d="M104 646q0 461 619 536q536 0 536 -783v-186q0 -247 -83 -247h-20q-57 0 -83 206v62h-21q-172 -166 -309 -166h-83q-556 0 -556 578zM343 679q0 -367 328 -367v-18q329 130 329 347q0 278 -213 309h-96q-348 -64 -348 -271z" />
<glyph unicode="&#xe3;" horiz-adv-x="1051" />
<glyph unicode="&#xe4;" horiz-adv-x="1051" />
<glyph unicode="&#xe5;" horiz-adv-x="1051" />
<glyph unicode="&#xe6;" horiz-adv-x="1657" />
<glyph unicode="&#xe7;" horiz-adv-x="1031" />
<glyph unicode="&#xe8;" horiz-adv-x="1036" />
<glyph unicode="&#xe9;" horiz-adv-x="1036" d="M120 506v140q76 421 350 421h46q467 -40 467 -304q-240 -396 -536 -396v-24q0 -53 116 -69q142 0 466 139h24q33 0 70 -70v-23q-65 -280 -513 -280h-71q-419 96 -419 466zM353 530q397 100 397 233q-185 70 -234 70q-163 -56 -163 -280v-23zM434 1314v53q343 347 469 347 q111 -14 138 -103q0 -21 -12 -36q-400 -313 -498 -313q-76 15 -97 52z" />
<glyph unicode="&#xea;" horiz-adv-x="1036" />
<glyph unicode="&#xeb;" horiz-adv-x="1036" />
<glyph unicode="&#xec;" horiz-adv-x="585" />
<glyph unicode="&#xed;" horiz-adv-x="585" d="M152 1019l71 35h48q192 0 192 -794v-37q0 -27 -96 -71q-129 0 -167 71q-48 599 -48 796zM280 1303v44q271 299 370 299q86 -12 108 -89q0 -18 -10 -31q-315 -269 -391 -269q-59 13 -77 46z" />
<glyph unicode="&#xee;" horiz-adv-x="585" />
<glyph unicode="&#xef;" horiz-adv-x="585" />
<glyph unicode="&#xf0;" horiz-adv-x="1298" />
<glyph unicode="&#xf1;" horiz-adv-x="1640" d="M152 824l52 25h52l78 -50q156 276 548 276q354 0 600 -578v-125q0 -301 -209 -301q-105 51 -105 125q0 54 27 276q0 261 -391 352h-27q-190 0 -234 -302q0 -426 -183 -426q-146 0 -208 728zM220 1273v63q89 263 351 263q159 0 376 -213q163 0 163 163l51 38h62 q20 0 50 -50v-50q0 -214 -301 -276h-50q-61 0 -276 188q-63 25 -87 25q-108 0 -264 -188h-37q-19 0 -38 37z" />
<glyph unicode="&#xf2;" horiz-adv-x="1151" />
<glyph unicode="&#xf3;" horiz-adv-x="1151" d="M136 682q0 376 292 520q299 80 324 80q306 0 569 -389q65 -214 65 -276q0 -585 -601 -585q-402 0 -584 374q-65 133 -65 276zM447 649q64 -361 373 -361q294 0 294 307q0 287 -387 373q-266 -71 -266 -266q-14 -24 -14 -53zM620 1437v48q271 314 370 314q88 -12 109 -93 q0 -19 -9 -33q-316 -283 -393 -283q-60 13 -77 47z" />
<glyph unicode="&#xf4;" horiz-adv-x="1151" />
<glyph unicode="&#xf5;" horiz-adv-x="1151" />
<glyph unicode="&#xf6;" horiz-adv-x="1151" />
<glyph unicode="&#xf8;" horiz-adv-x="1151" />
<glyph unicode="&#xf9;" horiz-adv-x="1207" />
<glyph unicode="&#xfa;" horiz-adv-x="1207" d="M89 543q65 586 191 586h42q20 0 84 -81l-84 -485q0 -283 359 -283q169 55 169 344l-64 403q42 81 128 81q189 -93 189 -505q-81 -565 -444 -565q-360 0 -548 343q-22 111 -22 162zM535 1218v48q271 314 370 314q88 -12 109 -93q0 -19 -9 -33q-316 -283 -393 -283 q-60 13 -77 47z" />
<glyph unicode="&#xfb;" horiz-adv-x="1207" />
<glyph unicode="&#xfc;" horiz-adv-x="1207" />
<glyph unicode="&#xfd;" horiz-adv-x="989" d="M64 1036q0 38 68 80h46l433 -505l46 -27q117 257 342 478h68q46 -8 46 -52v-54q0 -126 -639 -1169q0 -127 -137 -240h-91q-91 54 -91 160q114 292 319 638v27q-410 515 -410 664zM601 1213v47q271 315 370 315q88 -13 110 -94q0 -18 -11 -32q-315 -284 -393 -284 q-59 14 -76 48z" />
<glyph unicode="&#xfe;" horiz-adv-x="1151" />
<glyph unicode="&#xff;" horiz-adv-x="989" />
<glyph unicode="&#x10c;" horiz-adv-x="1250" d="M152 730q0 324 326 571q119 53 163 53h90q105 0 217 -124v-55q0 -35 -54 -35q-33 0 -200 35q-343 -119 -343 -464q53 -465 326 -465q67 0 290 107q74 -24 108 -89v-53q-148 -179 -398 -179q-449 0 -525 698zM258 1905l4 63q1 17 66 59l12 -1q73 -4 300 -275q21 -1 60 -41 q242 249 336 300q64 -39 68 -66l-1 -13q-3 -58 -301 -386q-2 -33 -104 -45q-118 7 -440 405z" />
<glyph unicode="&#x10d;" horiz-adv-x="1202" d="M176 652q110 442 395 442h243q30 0 109 -100v-20q0 -73 -374 -121q-109 -153 -109 -221q71 -344 285 -344q120 21 198 21h45q31 0 66 -60v-81q0 -61 -198 -101h-176q-388 0 -484 585zM188 1574l4 58q1 16 62 55l11 -1q68 -4 281 -255q20 -1 56 -38q227 231 315 278 q60 -36 63 -61v-12q-3 -54 -282 -358q-2 -30 -98 -41q-110 6 -412 375z" />
<glyph unicode="&#x10e;" horiz-adv-x="1282" d="M83 1428q82 68 156 68h202q602 0 738 -537v-112q0 -679 -872 -782q-179 0 -179 738q-28 0 -45 625zM206 1996l4 63q1 17 66 59l12 -1q73 -4 300 -275q21 -1 60 -41q242 249 336 300q64 -39 68 -66l-1 -13q-3 -58 -301 -386q-2 -33 -104 -45q-118 7 -440 405zM329 1272 l89 -827q515 79 515 469q0 306 -582 381q0 -23 -22 -23z" />
<glyph unicode="&#x10f;" horiz-adv-x="1708" d="M120 515v112q0 417 537 515h90l156 -23l-23 112v158q0 31 67 67h46q155 0 179 -1187q0 -156 -269 -156q-14 -67 -179 -67h-23q-447 0 -581 469zM377 564q0 -244 373 -284q140 59 200 119q0 456 -200 521q-373 -58 -373 -284v-72zM1213 1374v87q0 27 69 69h87 q105 -77 105 -227v-103q0 -106 -122 -192h-17q-122 102 -122 366z" />
<glyph unicode="&#x11a;" horiz-adv-x="1234" d="M128 1204h25l-25 37v57q0 152 380 152h76q507 0 507 -152q-38 -76 -75 -76q-203 0 -534 19q-49 -19 -75 -19v-341l25 -37l178 18h253q40 0 101 -75v-77q0 -29 -101 -75h-406q-50 -6 -50 -39q25 -264 50 -284q401 38 457 38l76 -75v-77q-8 -143 -711 -94q-126 0 -126 171 v417q0 161 -25 512zM182 1973l4 63q1 17 66 59l12 -1q73 -4 300 -275q21 -1 60 -41q242 249 336 300q64 -39 68 -66l-1 -13q-3 -58 -301 -386q-2 -33 -104 -45q-118 7 -440 405z" />
<glyph unicode="&#x11b;" horiz-adv-x="1290" d="M120 506v140q76 421 350 421h46q467 -40 467 -304q-240 -396 -536 -396v-24q0 -53 116 -69q142 0 466 139h24q33 0 70 -70v-23q-65 -280 -513 -280h-71q-419 96 -419 466zM144 1558l4 58q1 16 62 55l11 -1q69 -4 283 -253q20 -1 57 -38q228 229 317 276q60 -36 64 -61 l-1 -12q-3 -53 -284 -355q-2 -30 -98 -41q-111 6 -415 372zM353 530q397 100 397 233q-185 70 -234 70q-163 -56 -163 -280v-23z" />
<glyph unicode="&#x131;" horiz-adv-x="585" d="M22 834v51q253 78 297 207h55v-838q0 -197 114 -197h52v-57h-504v57h53q114 0 114 197v493q0 87 -127 87h-54z" />
<glyph unicode="&#x147;" horiz-adv-x="1771" d="M245 168q0 1043 95 1043h37q118 0 721 -647l189 -166h19v20q89 689 190 689h76q75 -43 75 -105q-114 -365 -171 -896q-61 -42 -113 -42q-102 0 -872 792q-57 -772 -132 -772h-57q-28 0 -57 84zM542 1677l4 63q1 17 66 59l12 -1q73 -4 300 -275q21 -1 60 -41 q242 249 336 300q64 -39 68 -66l-1 -13q-3 -58 -301 -386q-2 -33 -104 -45q-118 7 -440 405z" />
<glyph unicode="&#x148;" horiz-adv-x="1640" d="M152 824l52 25h52l78 -50q156 276 548 276q354 0 600 -578v-125q0 -301 -209 -301q-105 51 -105 125q0 54 27 276q0 261 -391 352h-27q-190 0 -234 -302q0 -426 -183 -426q-146 0 -208 728zM385 1620l4 63q1 17 66 59l12 -1q73 -4 300 -275q21 -1 60 -41q242 249 336 300 q64 -39 68 -66l-1 -13q-3 -58 -301 -386q-2 -33 -104 -45q-118 7 -440 405z" />
<glyph unicode="&#x158;" horiz-adv-x="1250" d="M144 1848l4 63q1 17 66 59l12 -1q73 -4 300 -275q21 -1 60 -41q242 249 336 300q64 -39 68 -66l-1 -13q-3 -58 -301 -386q-2 -33 -104 -45q-118 7 -440 405zM176 1256q115 106 348 106q454 0 623 -379v-61q0 -290 -258 -440l183 -228v-60q0 -80 -46 -91q-112 0 -350 303 l-30 -15h-167q-30 -5 -30 -31l15 -31q-36 -257 -106 -257h-60q-57 0 -108 410q0 34 16 61zM373 1165q31 -156 60 -562h91q411 58 411 288q0 207 -334 274l-183 15q-29 -15 -45 -15z" />
<glyph unicode="&#x159;" horiz-adv-x="1067" d="M125 1620l4 63q1 17 66 59l12 -1q73 -4 300 -275q21 -1 60 -41q242 249 336 300q64 -39 68 -66l-1 -13q-3 -58 -301 -386q-2 -33 -104 -45q-118 7 -440 405zM144 1036q32 87 65 87h43q99 0 152 -411h21q132 324 432 324q87 -32 87 -64v-86q0 -54 -238 -130 q-130 -144 -195 -649l-64 -43h-65q-119 0 -238 972z" />
<glyph unicode="&#x160;" horiz-adv-x="876" d="M19 1973l4 63q1 17 66 59l12 -1q73 -4 300 -275q21 -1 60 -41q242 249 336 300q64 -39 68 -66l-1 -13q-3 -58 -301 -386q-2 -33 -104 -45q-118 7 -440 405zM162 1048v30q106 316 316 316h60q81 0 105 -60v-61q0 -21 -180 -105q-75 -78 -75 -150q0 -132 240 -271 q164 -171 181 -316q0 -246 -361 -391h-106q-135 19 -135 136q0 119 241 119q120 63 120 151q0 72 -301 286q-105 148 -105 316z" />
<glyph unicode="&#x161;" horiz-adv-x="939" d="M50 1620l4 63q1 17 66 59l12 -1q73 -4 300 -275q21 -1 60 -41q242 249 336 300q64 -39 68 -66l-1 -13q-3 -58 -301 -386q-2 -33 -104 -45q-118 7 -440 405zM144 101v79q9 46 241 140l19 78q-204 248 -204 359v77q0 273 445 313q167 -40 167 -124q0 -72 -297 -142l-37 -47 v-14q0 -66 204 -375v-94q0 -232 -353 -327h-37q-148 41 -148 77z" />
<glyph unicode="&#x164;" horiz-adv-x="1418" d="M48 1288v69q28 68 123 68h352q94 0 160 17q92 -17 175 -17h318q194 0 194 -154q-61 -121 -141 -121q-180 17 -282 17h-124v-154q0 -177 18 -274q-18 -109 -18 -241q0 -42 18 -259q-61 -119 -141 -119q-113 0 -141 155v343q0 180 18 549h-159q-370 45 -370 121zM286 1993 l4 63q1 17 66 59l12 -1q73 -4 300 -275q21 -1 60 -41q242 249 336 300q64 -39 68 -66l-1 -13q-3 -58 -301 -386q-2 -33 -104 -45q-118 7 -440 405z" />
<glyph unicode="&#x165;" horiz-adv-x="1597" d="M128 897v56q0 80 278 92v241q0 27 55 56h37q130 -74 130 -297h222q185 0 185 -148q0 -96 -130 -130q-189 38 -259 38v-18q74 -552 74 -649q0 -49 -129 -74q-134 0 -185 741h-38q-212 0 -240 92zM905 1404v87q0 27 69 69h87q105 -77 105 -227v-103q0 -106 -122 -192h-17 q-122 102 -122 366z" />
<glyph unicode="&#x16e;" horiz-adv-x="1489" d="M142 809v529q0 25 69 64q223 0 223 -690q87 -352 379 -352q276 65 276 386l-70 592q24 80 121 80h51q155 -121 155 -721v-32q0 -410 -447 -545l-86 -16q-571 0 -671 705zM536 1700q0 123 121 182q25 11 36 11l12 -5q47 12 54 12q177 -35 177 -169q6 0 6 -42v-26 q0 -187 -219 -187q-162 0 -180 194zM643 1709q12 -117 83 -117h4q98 0 98 100q0 95 -106 95h-35q-28 -12 -44 -78z" />
<glyph unicode="&#x16f;" horiz-adv-x="1322" d="M173 543q65 586 191 586h42q20 0 84 -81l-84 -485q0 -283 359 -283q169 55 169 344l-64 403q42 81 128 81q189 -93 189 -505q-81 -565 -444 -565q-360 0 -548 343q-22 111 -22 162zM504 1396q0 123 121 182q25 11 36 11l12 -5q47 12 54 12q177 -35 177 -169q6 0 6 -42 v-26q0 -187 -219 -187q-162 0 -180 194zM611 1405q12 -117 83 -117h4q98 0 98 100q0 95 -106 95h-35q-28 -12 -44 -78z" />
<glyph unicode="&#x17d;" horiz-adv-x="1282" d="M64 215v68q3 106 675 709l64 84v16q-236 17 -347 17h-125q-220 0 -220 135q0 97 173 118h236q643 0 643 -134v-102q-193 -288 -722 -776h439q252 0 252 -168q-50 -101 -173 -101h-94q-83 0 -141 17q-83 -17 -157 -17h-267l-95 -17q-141 34 -141 151zM217 1905l4 63 q1 17 66 59l12 -1q73 -4 300 -275q21 -1 60 -41q242 249 336 300q64 -39 68 -66l-1 -13q-3 -58 -301 -386q-2 -33 -104 -45q-118 7 -440 405z" />
<glyph unicode="&#x17e;" horiz-adv-x="1290" d="M112 1021v78q32 77 137 77h699q99 -49 99 -155q0 -137 -468 -739h331l116 19q117 0 137 -156q0 -26 -97 -97h-701q-102 0 -116 58v117q212 330 485 700v39h-564q-28 0 -58 59zM189 1671l4 63q1 17 66 59l12 -1q73 -4 300 -275q21 -1 60 -41q242 249 336 300 q64 -39 68 -66l-1 -13q-3 -58 -301 -386q-2 -33 -104 -45q-118 7 -440 405z" />
<glyph unicode="&#x192;" horiz-adv-x="1083" d="M158 -96v1099q92 146 228 146q582 0 582 -166v-41q0 -29 -104 -104q-370 41 -478 41v-21q21 -111 21 -187v-165q7 -42 42 -42h477q29 0 62 -62v-103q0 -30 -62 -63h-497v-373q0 -113 -104 -166h-63q-104 47 -104 207z" />
<glyph unicode="&#x2c6;" horiz-adv-x="1167" d="M252 1230l264 405h135l264 -405h-66l-265 246l-266 -246h-66z" />
<glyph unicode="&#x2c7;" horiz-adv-x="1167" d="M141 1620l4 63q1 17 66 59l12 -1q73 -4 300 -275q21 -1 60 -41q242 249 336 300q64 -39 68 -66l-1 -13q-3 -58 -301 -386q-2 -33 -104 -45q-118 7 -440 405z" />
<glyph unicode="&#x2d8;" horiz-adv-x="1167" d="M250 1538h58q19 -83 85 -122t191 -39q124 0 189 38.5t84 122.5h58q-22 -152 -106.5 -230t-224.5 -78q-139 0 -224.5 78.5t-109.5 229.5z" />
<glyph unicode="&#x2d9;" horiz-adv-x="1167" d="M465 1440q0 7 3.5 14t12.5 15l79 83q7 6 15 9.5t16 3.5q6 0 13.5 -3.5t14.5 -9.5l81 -87q6 -5 8 -11.5t2 -15.5q-1 -11 -3 -17.5t-9 -13.5l-81 -87q-14 -12 -18.5 -15t-7.5 -3q-12 0 -19.5 3t-11.5 9l-86 100q-4 4 -6.5 10.5t-2.5 15.5z" />
<glyph unicode="&#x2da;" horiz-adv-x="1167" d="M375 1438q0 123 121 182q25 11 36 11l12 -5q47 12 54 12q177 -35 177 -169q6 0 6 -42v-26q0 -187 -219 -187q-162 0 -180 194zM482 1447q12 -117 83 -117h4q98 0 98 100q0 95 -106 95h-35q-28 -12 -44 -78z" />
<glyph unicode="&#x2db;" horiz-adv-x="1167" d="M421 -333q0 87 69 178.5t184 154.5h56q-81 -71 -126 -136.5t-45 -127.5q0 -54 30.5 -86t83.5 -32q45 0 78.5 17.5t56.5 55.5l32 -18q-41 -72 -103 -111t-136 -39q-80 0 -130 40.5t-50 103.5z" />
<glyph unicode="&#x2dc;" horiz-adv-x="1386" d="M182 692v63q87 263 349 263q159 0 376 -213q163 0 163 163l51 37h62q20 0 50 -50v-50q0 -213 -300 -276h-51q-61 0 -276 188q-63 25 -87 25q-107 0 -264 -188h-37q-18 0 -36 38z" />
<glyph unicode="&#x2dd;" horiz-adv-x="766" d="M72 1711v87q0 27 69 69h87q105 -77 105 -227v-103q0 -106 -122 -192h-17q-122 102 -122 366zM472 1537v174q0 135 87 173h69q105 -60 105 -278v-69q-24 -175 -156 -175q-105 71 -105 175z" />
<glyph unicode="&#x2000;" horiz-adv-x="1059" />
<glyph unicode="&#x2001;" horiz-adv-x="2118" />
<glyph unicode="&#x2002;" horiz-adv-x="1059" />
<glyph unicode="&#x2003;" horiz-adv-x="2118" />
<glyph unicode="&#x2004;" horiz-adv-x="706" />
<glyph unicode="&#x2005;" horiz-adv-x="529" />
<glyph unicode="&#x2006;" horiz-adv-x="353" />
<glyph unicode="&#x2007;" horiz-adv-x="353" />
<glyph unicode="&#x2008;" horiz-adv-x="264" />
<glyph unicode="&#x2009;" horiz-adv-x="423" />
<glyph unicode="&#x200a;" horiz-adv-x="117" />
<glyph unicode="&#x2010;" horiz-adv-x="916" d="M96 717v60q0 100 396 100h37q276 0 276 -100v-39q0 -113 -61 -141q-648 45 -648 120z" />
<glyph unicode="&#x2011;" horiz-adv-x="916" d="M96 717v60q0 100 396 100h37q276 0 276 -100v-39q0 -113 -61 -141q-648 45 -648 120z" />
<glyph unicode="&#x2012;" horiz-adv-x="916" d="M96 717v60q0 100 396 100h37q276 0 276 -100v-39q0 -113 -61 -141q-648 45 -648 120z" />
<glyph unicode="&#x2013;" horiz-adv-x="1263" d="M224 717v60q0 100 396 100h37q276 0 276 -100v-39q0 -113 -61 -141q-648 45 -648 120z" />
<glyph unicode="&#x2014;" horiz-adv-x="2334" d="M192 1040q21 64 84 64h473q442 0 1052 52q101 -42 264 -74q94 -61 94 -169q0 -105 -199 -105q-503 -52 -611 -52h-73q-452 20 -485 20q-239 0 -495 -20q-104 0 -104 284z" />
<glyph unicode="&#x2018;" horiz-adv-x="394" d="M72 1711v87q0 27 69 69h87q105 -77 105 -227v-103q0 -106 -122 -192h-17q-122 102 -122 366z" />
<glyph unicode="&#x2019;" horiz-adv-x="394" d="M72 1711v87q0 27 69 69h87q105 -77 105 -227v-103q0 -106 -122 -192h-17q-122 102 -122 366z" />
<glyph unicode="&#x201a;" horiz-adv-x="634" d="M160 -14v87q0 27 69 69h87q105 -77 105 -227v-103q0 -106 -122 -192h-17q-122 102 -122 366z" />
<glyph unicode="&#x201c;" horiz-adv-x="766" d="M72 1711v87q0 27 69 69h87q105 -77 105 -227v-103q0 -106 -122 -192h-17q-122 102 -122 366zM472 1537v174q0 135 87 173h69q105 -60 105 -278v-69q-24 -175 -156 -175q-105 71 -105 175z" />
<glyph unicode="&#x201d;" horiz-adv-x="766" d="M72 1711v87q0 27 69 69h87q105 -77 105 -227v-103q0 -106 -122 -192h-17q-122 102 -122 366zM472 1537v174q0 135 87 173h69q105 -60 105 -278v-69q-24 -175 -156 -175q-105 71 -105 175z" />
<glyph unicode="&#x201e;" horiz-adv-x="766" d="M56 87v86q0 28 69 70h87q105 -78 105 -227v-104q0 -106 -122 -191h-17q-122 101 -122 366zM456 87q0 134 87 173h69q105 -60 105 -278v-70q-24 -174 -156 -174q-105 70 -105 174v175z" />
<glyph unicode="&#x2020;" d="M81 1141q0 65 31.5 108t81.5 43q36 0 156 -64q97 -53 204 -63q-9 111 -62 203q-64 115 -64 147q0 56 41 89.5t109 33.5q65 0 107.5 -31.5t42.5 -81.5q0 -36 -62 -156q-53 -97 -63 -204q109 9 202 62q115 65 147 65q56 0 90 -41t34 -110q0 -65 -31.5 -107.5t-82.5 -42.5 q-36 0 -155 62q-97 53 -204 65q9 -200 125 -315q-120 -525 -127 -1111h-44q-6 586 -129 1111q116 115 126 315q-109 -11 -203 -62q-115 -65 -147 -65q-56 0 -89.5 41t-33.5 109z" />
<glyph unicode="&#x2021;" d="M80 189q0 69 33.5 110t89.5 41q32 0 147 -65q93 -52 203 -63q-10 258 -127 454q117 195 127 452q-110 -11 -203 -62q-115 -65 -147 -65q-56 0 -89.5 41t-33.5 109q0 65 31 108t82 43q36 0 156 -64q97 -53 204 -63q-9 111 -62 203q-65 115 -65 147q0 56 41 89.5t110 33.5 q65 0 107.5 -31.5t42.5 -81.5q0 -36 -62 -156q-53 -97 -63 -204q109 9 202 62q115 65 147 65q56 0 90 -41t34 -110q0 -65 -31.5 -107.5t-82.5 -42.5q-36 0 -155 62q-97 53 -204 65q9 -257 125 -452q-116 -196 -125 -454q107 13 204 65q119 63 155 63q51 0 82.5 -43 t31.5 -108q0 -68 -34 -109t-90 -41q-32 0 -147 65q-93 52 -202 61q10 -107 63 -204q62 -119 62 -156q0 -50 -42.5 -81.5t-107.5 -31.5q-69 0 -110 33.5t-41 89.5q0 32 65 147q53 93 62 203q-107 -10 -204 -62q-120 -64 -156 -64q-51 0 -82 42.5t-31 107.5z" />
<glyph unicode="&#x2022;" horiz-adv-x="1167" d="M246 819q0 140 99.5 238t239.5 98q139 0 237.5 -98.5t98.5 -237.5q0 -140 -99.5 -239.5t-238.5 -99.5q-141 0 -239 99t-98 240z" />
<glyph unicode="&#x2026;" horiz-adv-x="2334" d="M147 155q0 17 18 35l94 96q17 16 33 16q15 0 35 -18l91 -98q14 -18 14 -33q0 -17 -16 -36l-91 -100q-23 -23 -33 -23q-18 0 -33 16l-101 115q-11 15 -11 30zM926 155q0 17 18 35l93 96q17 16 33 16q15 0 36 -18l91 -98q14 -18 14 -33q0 -17 -16 -36l-91 -100 q-23 -23 -34 -23q-18 0 -33 16l-100 115q-11 15 -11 30zM1704 155q0 17 19 35l93 96q17 16 33 16q15 0 35 -18l92 -98q13 -18 13 -33q0 -17 -16 -36l-91 -100q-23 -23 -33 -23q-18 0 -33 16l-100 115q-12 15 -12 30z" />
<glyph unicode="&#x202f;" horiz-adv-x="423" />
<glyph unicode="&#x2039;" horiz-adv-x="719" d="M198 546l390 345h16v-42l-234 -303l234 -303v-42h-16z" />
<glyph unicode="&#x203a;" horiz-adv-x="719" d="M115 201v42l234 303l-234 303v42h16l390 -345l-390 -345h-16z" />
<glyph unicode="&#x2044;" horiz-adv-x="389" d="M-390 -33l1072 1665h95l-1069 -1665h-98z" />
<glyph unicode="&#x205f;" horiz-adv-x="529" />
<glyph unicode="&#x20a3;" d="M55 0v57h109q118 0 118 268v82h-222v68h222v835q0 268 -118 268h-109v57h1043l117 -264h-56q-67 208 -216 208l-360 -1q-117 0 -117 -268v-401h412q114 0 114 71v67h57v-390h-57v68q0 71 -114 71h-412v-321h221v-68h-221v-82q0 -268 117 -268h110v-57h-638z" />
<glyph unicode="&#x20a4;" d="M48 75v13q0 75 215 469q27 64 27 89h-102q-68 0 -89 51v63q46 77 152 77h26v25q-51 210 -51 267q49 343 279 343h64q68 0 101 -64v-89q0 -19 -51 -50q-124 37 -139 37q-58 0 -89 -139v-38q30 -267 63 -267h178q88 0 88 -89v-38q0 -17 -62 -64h-77l-127 -12v-38 q0 -155 -127 -368q57 0 343 -51h114q42 0 191 89h12q64 -19 64 -89q-41 -153 -279 -153q-109 -13 -166 -13l-215 52q-82 0 -242 -64q-101 25 -101 51z" />
<glyph unicode="&#x20a7;" horiz-adv-x="2311" d="M55 0v57h109q118 0 118 268v985q0 268 -118 268h-109v57h704q105 -3 207 -71q103 -71 163 -202q57 -129 58 -270h11q246 0 246 405h57v-405h296q48 22 125 23h2q62 0 152.5 -15.5t90.5 -38.5v-181h-48q-4 75 -74.5 123t-152.5 48q-73 0 -116.5 -41.5t-43.5 -110.5 q0 -123 268 -250q139 -63 190.5 -134.5t51.5 -174.5q0 -160 -94 -264q-117 -95 -260 -98q-66 0 -120 13q-32 7 -64 7q-20 0 -41 -4q-32 -5 -67 -5q-141 0 -197.5 65t-65.5 200h-1v783h-148q-8 -115 -54 -221q-57 -130 -161 -202t-217 -72q-114 0 -217 72q-38 26 -69 59v-348 q0 -268 117 -268h110v-57h-638zM466 823q4 -10 8 -19q47 -117 123 -175q65 -50 133 -50q11 0 21 1q78 9 145 85.5t99 202.5q25 99 25 204q0 27 -1 53q-8 132 -56.5 249t-123.5 165q-64 40 -128 40q-11 0 -24 -1h-221v-755zM1501 254q0 -92 39 -135q32 -36 92 -43l-80 219 l55 1q63 -148 130 -198q65 -50 145 -50h8q105 0 172 59q68 61 68 155q0 116 -296 258q-115 59 -164 127.5t-49 165.5q0 138 83 221l1 1h-204v-781z" />
<glyph unicode="&#x20ac;" horiz-adv-x="1153" d="M24 879q0 55 124 83v55q53 538 387 538q24 14 54 14q249 -36 249 -166v-27q0 -22 -55 -42q-67 42 -180 42h-14q-211 0 -248 -318v-68q34 0 538 27q68 0 97 -97q-29 -82 -55 -82q-268 0 -580 -29l14 -68q141 27 442 27h68q104 -17 111 -54v-43q-38 -68 -124 -68 q-23 0 -166 14q-207 -14 -303 -14v-14q0 -198 262 -331h28q66 0 289 124h41q56 -29 56 -68q0 -143 -332 -235h-97q-279 0 -441 483q0 22 -82 82v14q0 35 55 42v82q0 16 -124 56q-14 26 -14 41z" />
<glyph unicode="&#x2122;" horiz-adv-x="1706" />
<glyph unicode="&#x25fc;" horiz-adv-x="1065" d="M0 0v1066h1066v-1066h-1066z" />
</font>
</defs>
</svg>
